<svg width="372" height="72" viewBox="0 0 372 72" fill="none" xmlns="http://www.w3.org/2000/svg">
<path fill-rule="evenodd" clip-rule="evenodd" d="M12.6977 39.9829L0 45.5133L57.8323 71.3996L50.1713 56.7565L12.6977 39.9829Z" fill="#737373"/>
<path d="M18.702 29.9239L6.56308 35.211L64.3954 61.0973L57.0715 47.0985L18.702 29.9239Z" fill="#FB2D44"/>
<path fill-rule="evenodd" clip-rule="evenodd" d="M70.0954 0L12.1886 25.2211L70.0209 51.1074L56.7617 25.7637L70.0954 0Z" fill="#323232"/>
<path d="M140.794 17.4473L148.019 33.1376L155.81 14.9357L163.658 33.1376L170.798 17.4473H177.938L163.488 46.9937L155.81 29.2997L148.047 46.9937L133.626 17.4473H140.794ZM203.563 32.6861H183.787C183.957 34.9437 184.693 36.7404 185.997 38.0761C187.3 39.3931 188.972 40.0515 191.012 40.0515C192.598 40.0515 193.911 39.6753 194.95 38.9227C195.97 38.1702 197.131 36.778 198.435 34.7462L203.818 37.7375C202.987 39.1485 202.108 40.3573 201.183 41.3638C200.257 42.3703 199.266 43.1981 198.208 43.8471C197.15 44.4962 196.007 44.9712 194.78 45.2723C193.552 45.5733 192.22 45.7238 190.785 45.7238C186.667 45.7238 183.362 44.4068 180.869 41.773C178.375 39.1203 177.129 35.6022 177.129 31.2187C177.129 26.8728 178.338 23.3547 180.755 20.6644C183.192 18.0117 186.422 16.6854 190.445 16.6854C194.506 16.6854 197.717 17.9741 200.078 20.5515C202.42 23.1101 203.591 26.6564 203.591 31.1905L203.563 32.6861ZM197.018 27.4936C196.13 24.1072 193.986 22.414 190.587 22.414C189.812 22.414 189.085 22.5316 188.405 22.7668C187.725 23.0019 187.106 23.3406 186.549 23.7827C185.992 24.2248 185.515 24.7563 185.118 25.3771C184.722 25.998 184.42 26.7035 184.212 27.4936H197.018ZM224.252 22.1318L218.982 24.9256C218.151 23.2324 217.122 22.3858 215.894 22.3858C215.309 22.3858 214.808 22.5786 214.393 22.9643C213.977 23.35 213.769 23.8438 213.769 24.4459C213.769 25.4994 214.997 26.5435 217.452 27.5783C220.833 29.0269 223.109 30.3627 224.281 31.5855C225.452 32.8084 226.037 34.4546 226.037 36.524C226.037 39.1767 225.055 41.3967 223.091 43.184C221.183 44.8772 218.879 45.7238 216.177 45.7238C211.55 45.7238 208.273 43.4756 206.346 38.9792L211.786 36.4676C212.542 37.7845 213.118 38.6217 213.514 38.9792C214.289 39.6941 215.214 40.0515 216.291 40.0515C218.444 40.0515 219.521 39.0733 219.521 37.1167C219.521 35.9879 218.69 34.9343 217.027 33.956C216.385 33.6362 215.743 33.3258 215.101 33.0248C214.459 32.7237 213.807 32.4133 213.146 32.0935C211.295 31.1904 209.992 30.2874 209.236 29.3844C208.273 28.2367 207.791 26.7599 207.791 24.9538C207.791 22.5645 208.613 20.5891 210.256 19.0276C211.937 17.4661 213.977 16.6854 216.376 16.6854C219.908 16.6854 222.533 18.5008 224.252 22.1318ZM236.017 23.3735V44.9336H229.642V23.3735H226.922V17.4473H229.642V7.37274H236.017V17.4473H240.975V23.3735H236.017Z" fill="#FB2D44"/>
<path d="M80.121 17.6188H86.5321V20.166C88.7637 17.9584 91.279 16.8546 94.078 16.8546C97.293 16.8546 99.7988 17.864 101.595 19.8829C103.146 21.6 103.922 24.4019 103.922 28.2887V45.1852H97.5105V29.7888C97.5105 27.0717 97.1322 25.1944 96.3758 24.1566C95.6382 23.1 94.2955 22.5717 92.3475 22.5717C90.2294 22.5717 88.7259 23.2698 87.837 24.666C86.9671 26.0434 86.5321 28.4491 86.5321 31.8831V45.1852H80.121V17.6188ZM134.048 32.902H114.247C114.418 35.1662 115.155 36.9681 116.46 38.3077C117.765 39.6285 119.439 40.2889 121.481 40.2889C123.07 40.2889 124.384 39.9116 125.424 39.1568C126.446 38.4021 127.609 37.0059 128.914 34.9681L134.303 37.9681C133.471 39.3832 132.592 40.5955 131.665 41.605C130.739 42.6144 129.746 43.4446 128.687 44.0956C127.628 44.7465 126.483 45.2229 125.254 45.5248C124.025 45.8267 122.692 45.9777 121.254 45.9777C117.131 45.9777 113.822 44.6569 111.325 42.0154C108.829 39.3549 107.581 35.8266 107.581 31.4303C107.581 27.0717 108.791 23.5434 111.212 20.8452C113.652 18.1848 116.886 16.8546 120.914 16.8546C124.98 16.8546 128.195 18.1471 130.559 20.732C132.904 23.2981 134.076 26.8547 134.076 31.402L134.048 32.902ZM127.495 27.6944C126.606 24.2981 124.46 22.6 121.056 22.6C120.28 22.6 119.552 22.7179 118.871 22.9537C118.19 23.1896 117.571 23.5292 117.013 23.9726C116.455 24.416 115.978 24.9491 115.581 25.5717C115.183 26.1944 114.881 26.9019 114.673 27.6944H127.495Z" fill="#323232"/>
<path d="M263.972 17.619H270.374V45.1951H263.972V42.3073C261.347 44.761 258.524 45.9878 255.502 45.9878C251.687 45.9878 248.533 44.61 246.041 41.8543C243.567 39.0419 242.33 35.5312 242.33 31.3221C242.33 27.1885 243.567 23.7439 246.041 20.9882C248.515 18.2324 251.612 16.8546 255.332 16.8546C258.543 16.8546 261.422 18.1758 263.972 20.8183V17.619ZM248.845 31.3221C248.845 33.9646 249.553 36.1163 250.97 37.7773C252.424 39.4572 254.256 40.2971 256.465 40.2971C258.826 40.2971 260.733 39.4855 262.187 37.8622C263.642 36.1824 264.369 34.0496 264.369 31.4637C264.369 28.8778 263.642 26.745 262.187 25.0651C260.733 23.423 258.845 22.602 256.522 22.602C254.331 22.602 252.499 23.4325 251.026 25.0934C249.572 26.7733 248.845 28.8495 248.845 31.3221ZM281.396 60.2006H275.022V17.619H281.396V20.6201C283.908 18.1098 286.759 16.8546 289.951 16.8546C293.747 16.8546 296.872 18.2513 299.328 21.0448C301.82 23.8194 303.067 27.3207 303.067 31.5486C303.067 35.6822 301.83 39.1268 299.356 41.8826C296.901 44.6194 293.804 45.9878 290.064 45.9878C286.835 45.9878 283.946 44.6949 281.396 42.1091V60.2006ZM296.86 31.5769C296.86 28.9345 296.143 26.7828 294.707 25.1218C293.253 23.4419 291.421 22.602 289.212 22.602C286.87 22.602 284.972 23.4136 283.518 25.0368C282.064 26.6601 281.337 28.7929 281.337 31.4354C281.337 34.0212 282.064 36.1541 283.518 37.8339C284.953 39.4761 286.842 40.2971 289.183 40.2971C291.393 40.2971 293.215 39.4666 294.651 37.8056C296.124 36.1446 296.86 34.0684 296.86 31.5769ZM313.095 60.2006H306.721V17.619H313.095V20.6201C315.606 18.1098 318.458 16.8546 321.649 16.8546C325.445 16.8546 328.571 18.2513 331.026 21.0448C333.519 23.8194 334.765 27.3207 334.765 31.5486C334.765 35.6822 333.528 39.1268 331.054 41.8826C328.599 44.6194 325.502 45.9878 321.763 45.9878C318.533 45.9878 315.644 44.6949 313.095 42.1091V60.2006ZM328.559 31.5769C328.559 28.9345 327.841 26.7828 326.406 25.1218C324.952 23.4419 323.12 22.602 320.91 22.602C318.568 22.602 316.67 23.4136 315.216 25.0368C313.762 26.6601 313.035 28.7929 313.035 31.4354C313.035 34.0212 313.762 36.1541 315.216 37.8339C316.652 39.4761 318.54 40.2971 320.882 40.2971C323.091 40.2971 324.914 39.4666 326.349 37.8056C327.822 36.1446 328.559 34.0684 328.559 31.5769ZM353.99 22.3189L348.721 25.1218C347.89 23.423 346.86 22.5737 345.633 22.5737C345.047 22.5737 344.547 22.7671 344.132 23.1541C343.716 23.541 343.508 24.0365 343.508 24.6405C343.508 25.6974 344.736 26.745 347.191 27.7831C350.571 29.2365 352.847 30.5766 354.018 31.8034C355.189 33.0303 355.774 34.6818 355.774 36.7581C355.774 39.4194 354.792 41.6466 352.828 43.4398C350.921 45.1385 348.617 45.9878 345.916 45.9878C341.289 45.9878 338.013 43.7323 336.086 39.2212L341.525 36.7014C342.281 38.0227 342.857 38.8626 343.253 39.2212C344.028 39.9385 344.953 40.2971 346.029 40.2971C348.182 40.2971 349.259 39.3156 349.259 37.3526C349.259 36.2201 348.428 35.1632 346.766 34.1817C346.124 33.8608 345.482 33.5494 344.84 33.2474C344.198 32.9454 343.546 32.6339 342.885 32.3131C341.034 31.4071 339.731 30.5011 338.976 29.5951C338.013 28.4437 337.531 26.9621 337.531 25.1501C337.531 22.753 338.353 20.7711 339.996 19.2045C341.676 17.6379 343.716 16.8546 346.114 16.8546C349.646 16.8546 352.271 18.676 353.99 22.3189Z" fill="#323232"/>
<path d="M363.552 15.4437V17.8497H364.63C365.245 17.8497 365.693 17.7575 365.976 17.5732C366.259 17.3826 366.4 17.0846 366.4 16.679C366.4 16.2549 366.253 15.9446 365.958 15.7479C365.663 15.5451 365.196 15.4437 364.557 15.4437H363.552ZM361.911 14.4112H364.852C365.915 14.4112 366.72 14.5864 367.267 14.9367C367.814 15.287 368.087 15.8032 368.087 16.4854C368.087 17.0446 367.94 17.5086 367.645 17.8774C367.35 18.24 366.929 18.4796 366.382 18.5964L368.087 22.0533H366.253L364.741 18.8637H363.552V22.0533H361.911V14.4112ZM364.704 12.5399C363.911 12.5399 363.174 12.6812 362.492 12.9639C361.809 13.2405 361.195 13.6523 360.648 14.1992C360.083 14.7769 359.646 15.4222 359.339 16.1351C359.038 16.848 358.887 17.5885 358.887 18.3567C358.887 19.1249 359.032 19.8593 359.32 20.5599C359.609 21.2544 360.027 21.8782 360.574 22.4313C361.127 22.9905 361.754 23.4207 362.455 23.7218C363.155 24.023 363.874 24.1735 364.612 24.1735C365.411 24.1735 366.167 24.0291 366.88 23.7403C367.599 23.4514 368.244 23.0274 368.815 22.4681C369.362 21.9396 369.783 21.3312 370.078 20.6429C370.373 19.9484 370.521 19.2171 370.521 18.4489C370.521 17.6315 370.38 16.8726 370.097 16.172C369.82 15.4652 369.409 14.8322 368.862 14.273C368.29 13.7076 367.651 13.2774 366.944 12.9824C366.244 12.6874 365.497 12.5399 364.704 12.5399ZM364.686 11.5443C365.626 11.5443 366.511 11.7164 367.341 12.0605C368.176 12.4047 368.92 12.9117 369.571 13.5816C370.204 14.2207 370.687 14.949 371.019 15.7663C371.351 16.5776 371.516 17.441 371.516 18.3567C371.516 19.297 371.344 20.1789 371 21.0024C370.662 21.8259 370.167 22.5542 369.516 23.1872C368.852 23.8325 368.106 24.3272 367.276 24.6713C366.446 25.0155 365.583 25.1876 364.686 25.1876C363.782 25.1876 362.913 25.0124 362.077 24.6621C361.247 24.3057 360.507 23.7956 359.855 23.1319C359.21 22.4804 358.718 21.746 358.38 20.9287C358.042 20.1113 357.873 19.254 357.873 18.3567C357.873 17.4533 358.048 16.5806 358.399 15.7387C358.755 14.8967 359.265 14.1439 359.929 13.4802C360.568 12.841 361.287 12.3586 362.086 12.0329C362.891 11.7072 363.758 11.5443 364.686 11.5443Z" fill="#494949"/>
</svg>
